<mxfile host="app.diagrams.net" modified="2022-05-12T02:35:45.943Z" agent="5.0 (Windows NT 10.0; Win64; x64) AppleWebKit/537.36 (KHTML, like Gecko) Chrome/101.0.4951.54 Safari/537.36" etag="KZn90w3SHE3JPxfLw4f5" version="18.0.2" type="github">
  <diagram name="Page-1" id="2cc2dc42-3aac-f2a9-1cec-7a8b7cbee084">
    <mxGraphModel dx="1422" dy="762" grid="1" gridSize="10" guides="1" tooltips="1" connect="1" arrows="1" fold="1" page="1" pageScale="1" pageWidth="1100" pageHeight="850" background="none" math="0" shadow="0">
      <root>
        <mxCell id="0" />
        <mxCell id="1" parent="0" />
        <mxCell id="7026571954dc6520-1" value="" style="strokeWidth=1;shadow=0;dashed=0;align=center;html=1;shape=mxgraph.mockup.containers.browserWindow;rSize=0;strokeColor=#666666;mainText=,;recursiveResize=0;rounded=0;labelBackgroundColor=none;fontFamily=Verdana;fontSize=12;fillColor=#FFFFFF;" parent="1" vertex="1">
          <mxGeometry x="30" y="29" width="1050" height="820" as="geometry" />
        </mxCell>
        <mxCell id="7026571954dc6520-2" value="Page 1" style="strokeWidth=1;shadow=0;dashed=0;align=center;html=1;shape=mxgraph.mockup.containers.anchor;fontSize=17;fontColor=#666666;align=left;" parent="7026571954dc6520-1" vertex="1">
          <mxGeometry x="60" y="12" width="110" height="26" as="geometry" />
        </mxCell>
        <mxCell id="7026571954dc6520-3" value="appraisal.magazzin.com/dashboard" style="strokeWidth=1;shadow=0;dashed=0;align=center;html=1;shape=mxgraph.mockup.containers.anchor;rSize=0;fontSize=17;fontColor=#666666;align=left;" parent="7026571954dc6520-1" vertex="1">
          <mxGeometry x="130" y="60" width="310" height="26" as="geometry" />
        </mxCell>
        <mxCell id="7026571954dc6520-15" value="" style="verticalLabelPosition=bottom;shadow=0;dashed=0;align=center;html=1;verticalAlign=top;strokeWidth=1;shape=mxgraph.mockup.markup.line;strokeColor=#999999;rounded=0;labelBackgroundColor=none;fillColor=#ffffff;fontFamily=Verdana;fontSize=12;fontColor=#000000;rotation=90;" parent="7026571954dc6520-1" vertex="1">
          <mxGeometry x="-64" y="454" width="710" height="20" as="geometry" />
        </mxCell>
        <mxCell id="7026571954dc6520-16" value="Title 1" style="text;html=1;points=[];align=left;verticalAlign=top;spacingTop=-4;fontSize=15;fontFamily=Verdana" parent="7026571954dc6520-1" vertex="1">
          <mxGeometry x="20" y="330" width="170" height="30" as="geometry" />
        </mxCell>
        <mxCell id="SZr3nd6nF8tyNM994ILB-43" value="" style="verticalLabelPosition=bottom;shadow=0;dashed=0;align=center;html=1;verticalAlign=top;strokeWidth=1;shape=mxgraph.mockup.graphics.simpleIcon;strokeColor=#999999;fontFamily=Helvetica;fontSize=30;fillColor=#FFFFFF;" vertex="1" parent="7026571954dc6520-1">
          <mxGeometry x="50" y="150" width="190" height="88" as="geometry" />
        </mxCell>
        <mxCell id="7026571954dc6520-4" value="&lt;font face=&quot;Helvetica&quot;&gt;LOGO&lt;/font&gt;" style="text;html=1;points=[];align=left;verticalAlign=top;spacingTop=-4;fontSize=30;fontFamily=Verdana" parent="7026571954dc6520-1" vertex="1">
          <mxGeometry x="99.5" y="173" width="95" height="50" as="geometry" />
        </mxCell>
        <mxCell id="SZr3nd6nF8tyNM994ILB-44" value="&lt;span style=&quot;font-size: 24px;&quot;&gt;&lt;font style=&quot;font-size: 24px;&quot;&gt;Staff profile&lt;/font&gt;&lt;/span&gt;" style="verticalLabelPosition=bottom;shadow=0;dashed=0;align=left;html=1;verticalAlign=top;strokeWidth=1;shape=mxgraph.mockup.graphics.simpleIcon;strokeColor=#999999;fontFamily=Helvetica;fontSize=24;fillColor=#FFFFFF;flipH=1;flipV=1;noLabel=0;portConstraintRotation=0;connectable=1;" vertex="1" parent="7026571954dc6520-1">
          <mxGeometry x="420" y="180" width="520" height="140" as="geometry" />
        </mxCell>
        <mxCell id="SZr3nd6nF8tyNM994ILB-45" value="&lt;span style=&quot;font-size: 24px;&quot;&gt;Appraisal Review Schedule&lt;/span&gt;&lt;br style=&quot;font-size: 24px;&quot;&gt;&lt;div style=&quot;font-size: 24px;&quot;&gt;&lt;span style=&quot;background-color: initial; font-size: 24px;&quot;&gt;self&lt;/span&gt;&lt;/div&gt;&lt;div style=&quot;font-size: 24px;&quot;&gt;&lt;span style=&quot;background-color: initial; font-size: 24px;&quot;&gt;top down&lt;/span&gt;&lt;/div&gt;&lt;div style=&quot;font-size: 24px;&quot;&gt;&lt;span style=&quot;background-color: initial; font-size: 24px;&quot;&gt;department (for department/division head)&lt;/span&gt;&lt;/div&gt;" style="verticalLabelPosition=bottom;shadow=0;dashed=0;align=left;html=1;verticalAlign=top;strokeWidth=1;shape=mxgraph.mockup.graphics.simpleIcon;strokeColor=#999999;fontFamily=Helvetica;fontSize=24;fillColor=#FFFFFF;flipH=1;flipV=1;noLabel=0;portConstraintRotation=0;connectable=1;" vertex="1" parent="7026571954dc6520-1">
          <mxGeometry x="420" y="408" width="520" height="140" as="geometry" />
        </mxCell>
        <mxCell id="SZr3nd6nF8tyNM994ILB-3" value="" style="perimeter=none;dashed=0;shape=rect;fillColor=#ffffff;strokeColor=#eeeeee;shadow=0;labelBackgroundColor=#E6E6E6;" vertex="1" parent="1">
          <mxGeometry x="31" y="291" width="289" height="540" as="geometry" />
        </mxCell>
        <mxCell id="SZr3nd6nF8tyNM994ILB-4" value="Dashboard" style="text;verticalAlign=middle;fontSize=15;spacing=16;resizeWidth=1;labelBackgroundColor=none;labelBorderColor=none;fillColor=#E6E6E6;" vertex="1" parent="SZr3nd6nF8tyNM994ILB-3">
          <mxGeometry width="288.99999999999994" height="42" relative="1" as="geometry">
            <mxPoint as="offset" />
          </mxGeometry>
        </mxCell>
        <mxCell id="SZr3nd6nF8tyNM994ILB-5" value="Instruction" style="text;verticalAlign=middle;fontSize=15;spacing=16;resizeWidth=1;" vertex="1" parent="SZr3nd6nF8tyNM994ILB-3">
          <mxGeometry width="288.99999999999994" height="42" relative="1" as="geometry">
            <mxPoint y="42" as="offset" />
          </mxGeometry>
        </mxCell>
        <mxCell id="SZr3nd6nF8tyNM994ILB-6" value="Performance" style="text;verticalAlign=middle;fontSize=15;spacing=16;resizeWidth=1;" vertex="1" parent="SZr3nd6nF8tyNM994ILB-3">
          <mxGeometry width="288.99999999999994" height="42" relative="1" as="geometry">
            <mxPoint y="84" as="offset" />
          </mxGeometry>
        </mxCell>
        <mxCell id="SZr3nd6nF8tyNM994ILB-7" value="Aadmin Panel" style="text;verticalAlign=middle;fontSize=15;spacing=16;resizeWidth=1;" vertex="1" parent="SZr3nd6nF8tyNM994ILB-3">
          <mxGeometry width="288.99999999999994" height="42" relative="1" as="geometry">
            <mxPoint y="126" as="offset" />
          </mxGeometry>
        </mxCell>
        <mxCell id="SZr3nd6nF8tyNM994ILB-10" value="History" style="text;verticalAlign=middle;fontSize=15;spacing=16;resizeWidth=1;" vertex="1" parent="SZr3nd6nF8tyNM994ILB-3">
          <mxGeometry y="170" width="288.99999999999994" height="40" as="geometry" />
        </mxCell>
        <mxCell id="SZr3nd6nF8tyNM994ILB-11" value="Log Out" style="text;verticalAlign=middle;fontSize=15;spacing=16;resizeWidth=1;" vertex="1" parent="SZr3nd6nF8tyNM994ILB-3">
          <mxGeometry y="210" width="288.99999999999994" height="40" as="geometry" />
        </mxCell>
      </root>
    </mxGraphModel>
  </diagram>
</mxfile>
